<svg xmlns="http://www.w3.org/2000/svg" width="218" height="40" viewBox="0 0 218 40">
    <g fill="none" fill-rule="nonzero">
        <path fill="#4D4D4D" d="M48.6 1c-5 0-6.8 3.5-6.8 6.8v2h-1c-.8 0-1.4.6-1.4 1.4 0 .8.6 1.4 1.4 1.4h1v13.8c0 .8.6 1.5 1.5 1.5s1.5-.6 1.5-1.5V12.5H48c.8 0 1.4-.6 1.4-1.4 0-.8-.6-1.4-1.4-1.4h-3.2v-2c0-1.8.7-4 3.9-4 .8 0 1.4-.6 1.4-1.3-.1-.8-.7-1.4-1.5-1.4zM60 9.3c-2-.1-3.8.8-5 2.4v-.8c0-.8-.6-1.5-1.5-1.5s-1.5.7-1.5 1.5v15.4c0 .8.6 1.5 1.5 1.5s1.5-.6 1.5-1.5v-8.5c0-3.6 1.9-5.7 5-5.7.8 0 1.4-.6 1.4-1.4 0-.8-.7-1.4-1.4-1.4zM77.7 16.9c0-1.7-.5-3.4-1.4-4.8-1.4-1.9-3.7-3-6.1-2.8-5.1 0-8 3.4-8 9.3 0 6.1 2.9 9.4 8.4 9.4 2.2.1 4.4-.7 6.1-2.2.3-.2.5-.6.5-1 0-.7-.6-1.3-1.3-1.3-.3 0-.6.1-.8.3-1.2 1-2.8 1.6-4.4 1.6-3.3 0-5.4-2.2-5.5-5.7H76c1.7-.2 1.7-1.8 1.7-2.8zm-7.4-5c3 0 4.5 1.7 4.6 5h-9.7c.3-3.2 2.1-5 5.1-5zM87.5 17.1c-2.2-.8-4-1.4-4-3 0-1.8 2-2 3.1-2 1.5-.1 3 .5 4 1.5.5.5 1.4.5 1.9 0 .3-.3.4-.6.4-1 0-.3-.1-.6-.3-.9-1.5-1.7-3.7-2.7-5.9-2.5-3.7 0-6 1.9-6 4.8 0 3.6 3.2 4.7 6 5.7 2.1.7 4 1.3 4 2.9 0 2.1-2.4 2.5-3.8 2.5-1.7.1-3.4-.6-4.6-1.8-.3-.3-.6-.4-1-.5-.7 0-1.3.6-1.3 1.3 0 .3.1.6.3.9 1.7 2 4.1 3 6.6 3 4.2 0 6.7-2 6.7-5.2-.2-3.7-3.3-4.7-6.1-5.7zM104.8 9.2c-1.8-.1-3.6.7-4.8 2.1V1.5c0-.8-.6-1.5-1.5-1.5-.8 0-1.4.6-1.4 1.5v24.8c0 .8.6 1.5 1.4 1.5.8 0 1.5-.6 1.5-1.5V17c0-3.4 1.6-5.1 4.8-5.1 3.2 0 4.3 1.4 4.3 4.8v9.6c0 .8.6 1.5 1.5 1.5.8 0 1.4-.6 1.4-1.5V16.2c0-4.6-2.4-7-7.2-7zM122.6 17.1c-2.2-.8-4-1.4-4-3 0-1.8 2-2 3.1-2 1.5-.1 3 .5 4 1.5.3.3.6.4 1 .4.7 0 1.3-.6 1.3-1.3 0-.3-.1-.6-.3-.9-1.5-1.7-3.7-2.7-5.9-2.5-3.7 0-6 1.9-6 4.8 0 3.6 3.2 4.7 6 5.7 2.1.7 4 1.3 4 2.9 0 2.1-2.4 2.5-3.8 2.5-1.7.1-3.4-.6-4.6-1.8-.3-.3-.6-.4-1-.5-.7 0-1.3.6-1.3 1.3 0 .3.1.6.3.9 1.7 1.9 4.1 2.9 6.7 2.8 4.2 0 6.7-2 6.7-5.2-.3-3.6-3.5-4.6-6.2-5.6zM146.5 16.9c0-1.7-.5-3.4-1.4-4.8-1.4-1.9-3.7-3-6.1-2.8-5.1 0-8 3.4-8 9.3 0 6.1 2.9 9.4 8.4 9.4 2.2.1 4.4-.7 6.1-2.2.3-.2.5-.6.5-1 0-.7-.6-1.3-1.3-1.3-.3 0-.6.1-.8.3-1.2 1-2.8 1.6-4.4 1.6-3.3 0-5.4-2.2-5.5-5.7h10.8c1.7-.2 1.7-1.8 1.7-2.8zm-7.5-5c3 0 4.5 1.7 4.6 5h-9.7c.3-3.2 2.1-5 5.1-5zM157.7 9.3c-2-.1-3.8.8-5 2.4v-.8c0-.8-.7-1.4-1.5-1.4s-1.4.6-1.4 1.4v15.4c0 .8.7 1.4 1.5 1.4s1.4-.6 1.4-1.4v-8.5c0-3.6 1.9-5.7 5-5.7.8 0 1.4-.6 1.4-1.4 0-.8-.6-1.4-1.4-1.4zM175.4 9.5c-.6 0-1.2.4-1.4.9l-5.1 12.5-5.1-12.5c-.2-.6-.7-1-1.4-.9-.8 0-1.4.6-1.4 1.4 0 .2 0 .4.1.6v.1l6.4 15.3c.3.7 1.2 1.1 1.9.8.4-.1.6-.4.8-.8l6.4-15.3v-.1c.1-.2.1-.4.1-.6.1-.8-.5-1.4-1.3-1.4zM180.8 3c-.8-.1-1.6.5-1.7 1.3v.4c-.1.9.6 1.7 1.5 1.8.9.1 1.7-.6 1.8-1.5v-.3c.1-.8-.4-1.6-1.3-1.7h-.3zM180.8 9.5c-.8 0-1.4.6-1.4 1.4v15.4c0 .8.6 1.5 1.4 1.5.8 0 1.5-.6 1.5-1.4V10.9c0-.8-.7-1.4-1.5-1.4zM198.7 23.4c-.3 0-.6.1-.9.3-1.2 1-2.7 1.6-4.2 1.6-3.4 0-5.1-2.2-5.1-6.7s1.7-6.7 5.1-6.7c1.5-.1 3 .5 3.9 1.7.3.3.7.5 1.1.5.7 0 1.3-.6 1.3-1.3v-.1c0-.3-.1-.6-.3-.9-1.5-1.8-3.7-2.8-6-2.7-5.3 0-8 3.2-8 9.3 0 6.1 2.8 9.4 8 9.4 2.2 0 4.2-.7 5.9-2.1.4-.3.6-.7.6-1.1 0-.6-.6-1.2-1.4-1.2zM215.9 23.4c-.3 0-.6.1-.8.3-1.2 1-2.8 1.6-4.4 1.6-3.3 0-5.4-2.2-5.5-5.7H216c1.8 0 1.8-1.6 1.8-2.7 0-1.7-.5-3.4-1.4-4.8-1.4-1.9-3.7-3-6.1-2.8-5.1 0-8 3.4-8 9.3 0 6.1 2.9 9.4 8.4 9.4 2.2.1 4.4-.7 6.1-2.2.3-.2.5-.6.5-1 0-.8-.6-1.4-1.4-1.4zm-5.6-11.5c3 0 4.5 1.7 4.6 5h-9.7c.3-3.2 2.1-5 5.1-5z"/>
        <path fill="#08C7FB" d="M17 5.9h12.8c2.4 0 4.3 1.9 4.3 4.3V23c0 9.4-7.6 17-17 17H17C7.6 40 0 32.4 0 23S7.6 6 17 5.9z"/>
        <path fill="#FFF" d="M16.8 31.4c.2.2.5.1.7-.1l5.4-7.5 1.2-1.7c.2-.3.1-.7-.1-.9-.1-.1-.2-.1-.4-.1h-8.1l2-6c.1-.2 0-.5-.2-.6-.2-.1-.5 0-.6.2l-5.4 7.5-1.3 1.6c-.2.3-.1.7.1.9.1.1.2.1.4.1h8.1l-2 6c-.1.2 0 .5.2.6z"/>
    </g>
</svg>
